<svg data-v-423bf9ae="" xmlns="http://www.w3.org/2000/svg" viewBox="0 0 253.12812463205788 60" class="font"><!----><!----><!----><g data-v-423bf9ae="" id="8c59b33a-3258-4ecf-9b7b-ae0f18ccfd14" fill="black" transform="matrix(4.991680342345265,0,0,4.991680342345265,-0.49916671180235994,-13.427620883372164)"><path d="M0.10 12.29L3.82 2.69L5.52 2.69L9.24 12.29L7.83 12.29L6.86 9.73L2.41 9.73L1.47 12.29L0.10 12.29ZM2.84 8.57L6.43 8.57L5.31 5.57L4.66 3.84L4.59 3.84L3.96 5.54L2.84 8.57ZM10.28 14.71L10.28 4.93L11.20 4.93L11.35 5.92L11.44 5.92L11.44 5.92Q11.80 5.35 12.40 5.05L12.40 5.05L12.40 5.05Q12.99 4.76 13.72 4.76L13.72 4.76L13.72 4.76Q15.12 4.76 15.88 5.70L15.88 5.70L15.88 5.70Q16.63 6.64 16.63 8.61L16.63 8.61L16.63 8.61Q16.63 10.54 15.88 11.50L15.88 11.50L15.88 11.50Q15.13 12.46 13.83 12.46L13.83 12.46L13.83 12.46Q13.05 12.46 12.50 12.22L12.50 12.22L12.50 12.22Q11.96 11.98 11.59 11.45L11.59 11.45L11.51 11.45L11.51 14.71L10.28 14.71ZM13.41 11.44L13.41 11.44Q14.13 11.44 14.55 11.17L14.55 11.17L14.55 11.17Q14.97 10.91 15.16 10.30L15.16 10.30L15.16 10.30Q15.36 9.70 15.36 8.67L15.36 8.67L15.36 8.61L15.36 8.61Q15.36 7.56 15.16 6.94L15.16 6.94L15.16 6.94Q14.97 6.33 14.54 6.05L14.54 6.05L14.54 6.05Q14.11 5.78 13.41 5.78L13.41 5.78L13.41 5.78Q12.43 5.78 11.97 6.50L11.97 6.50L11.97 6.50Q11.51 7.21 11.51 8.61L11.51 8.61L11.51 8.67L11.51 8.67Q11.51 10.04 11.96 10.74L11.96 10.74L11.96 10.74Q12.42 11.44 13.41 11.44L13.41 11.44ZM18.06 14.71L18.06 4.93L18.98 4.93L19.14 5.92L19.22 5.92L19.22 5.92Q19.59 5.35 20.18 5.05L20.18 5.05L20.18 5.05Q20.78 4.76 21.50 4.76L21.50 4.76L21.50 4.76Q22.90 4.76 23.66 5.70L23.66 5.70L23.66 5.70Q24.42 6.64 24.42 8.61L24.42 8.61L24.42 8.61Q24.42 10.54 23.67 11.50L23.67 11.50L23.67 11.50Q22.92 12.46 21.62 12.46L21.62 12.46L21.62 12.46Q20.83 12.46 20.29 12.22L20.29 12.22L20.29 12.22Q19.74 11.98 19.38 11.45L19.38 11.45L19.29 11.45L19.29 14.71L18.06 14.71ZM21.20 11.44L21.20 11.44Q21.91 11.44 22.33 11.17L22.33 11.17L22.33 11.17Q22.75 10.91 22.95 10.30L22.95 10.30L22.95 10.30Q23.14 9.70 23.14 8.67L23.14 8.67L23.14 8.61L23.14 8.61Q23.14 7.56 22.95 6.94L22.95 6.94L22.95 6.94Q22.75 6.33 22.32 6.05L22.32 6.05L22.32 6.05Q21.90 5.78 21.20 5.78L21.20 5.78L21.20 5.78Q20.22 5.78 19.75 6.50L19.75 6.50L19.75 6.50Q19.29 7.21 19.29 8.61L19.29 8.61L19.29 8.67L19.29 8.67Q19.29 10.04 19.75 10.74L19.75 10.74L19.75 10.74Q20.20 11.44 21.20 11.44L21.20 11.44ZM26.01 12.29L26.01 2.69L27.99 2.69L30.28 9.24L30.28 9.24Q30.41 9.60 30.54 10.07L30.54 10.07L30.54 10.07Q30.67 10.54 30.72 10.68L30.72 10.68L30.77 10.68L30.77 10.68Q30.81 10.53 30.95 10.04L30.95 10.04L30.95 10.04Q31.08 9.55 31.19 9.24L31.19 9.24L33.50 2.69L35.46 2.69L35.46 12.29L34.13 12.29L34.13 5.95L34.16 4.16L34.06 4.16L34.06 4.16Q34.05 4.26 33.98 4.56L33.98 4.56L33.98 4.56Q33.91 4.86 33.82 5.08L33.82 5.08L31.22 12.29L30.11 12.29L27.55 5.08L27.55 5.08Q27.48 4.89 27.40 4.57L27.40 4.57L27.40 4.57Q27.33 4.26 27.31 4.16L27.31 4.16L27.23 4.16L27.26 5.95L27.26 12.29L26.01 12.29ZM39.51 12.46L39.51 12.46Q38.56 12.46 37.81 12.01L37.81 12.01L37.81 12.01Q37.07 11.56 37.07 10.39L37.07 10.39L37.07 10.39Q37.07 8.97 38.33 8.45L38.33 8.45L38.33 8.45Q39.59 7.92 41.97 7.92L41.97 7.92L41.97 7.11L41.97 7.11Q41.97 6.47 41.61 6.13L41.61 6.13L41.61 6.13Q41.24 5.78 40.29 5.78L40.29 5.78L40.29 5.78Q39.40 5.78 39.01 6.12L39.01 6.12L39.01 6.12Q38.63 6.45 38.63 6.94L38.63 6.94L38.63 7.11L37.44 7.11L37.44 7.11Q37.42 7.03 37.42 6.80L37.42 6.80L37.42 6.80Q37.42 5.82 38.23 5.29L38.23 5.29L38.23 5.29Q39.05 4.76 40.40 4.76L40.40 4.76L40.40 4.76Q41.78 4.76 42.49 5.33L42.49 5.33L42.49 5.33Q43.20 5.91 43.20 6.96L43.20 6.96L43.20 10.95L43.20 10.95Q43.20 11.20 43.34 11.32L43.34 11.32L43.34 11.32Q43.48 11.44 43.69 11.44L43.69 11.44L44.25 11.44L44.25 12.24L44.25 12.24Q43.89 12.40 43.30 12.40L43.30 12.40L43.30 12.40Q42.83 12.40 42.50 12.12L42.50 12.12L42.50 12.12Q42.18 11.83 42.07 11.35L42.07 11.35L41.97 11.35L41.97 11.35Q41.59 11.87 40.94 12.17L40.94 12.17L40.94 12.17Q40.29 12.46 39.51 12.46L39.51 12.46ZM39.83 11.44L39.83 11.44Q40.38 11.44 40.87 11.21L40.87 11.21L40.87 11.21Q41.36 10.99 41.66 10.55L41.66 10.55L41.66 10.55Q41.97 10.11 41.97 9.48L41.97 9.48L41.97 8.95L41.97 8.95Q40.17 8.95 39.26 9.23L39.26 9.23L39.26 9.23Q38.36 9.52 38.36 10.32L38.36 10.32L38.36 10.32Q38.36 10.92 38.73 11.18L38.73 11.18L38.73 11.18Q39.10 11.44 39.83 11.44L39.83 11.44ZM47.81 12.46L47.81 12.46Q46.79 12.46 46.11 12.16L46.11 12.16L46.11 12.16Q45.43 11.86 45.11 11.37L45.11 11.37L45.11 11.37Q44.79 10.88 44.79 10.30L44.79 10.30L44.79 10.30Q44.79 10.14 44.79 10.07L44.79 10.07L44.79 10.07Q44.80 10.01 44.80 10.00L44.80 10.00L46.02 10.00L46.02 10.14L46.02 10.14Q46.02 10.79 46.54 11.12L46.54 11.12L46.54 11.12Q47.05 11.45 47.88 11.45L47.88 11.45L47.88 11.45Q48.59 11.45 49.06 11.16L49.06 11.16L49.06 11.16Q49.53 10.88 49.53 10.36L49.53 10.36L49.53 10.36Q49.53 9.95 49.27 9.70L49.27 9.70L49.27 9.70Q49 9.44 48.61 9.29L48.61 9.29L48.61 9.29Q48.22 9.14 47.54 8.97L47.54 8.97L47.54 8.97Q46.73 8.76 46.22 8.55L46.22 8.55L46.22 8.55Q45.71 8.34 45.35 7.93L45.35 7.93L45.35 7.93Q45.00 7.52 45.00 6.86L45.00 6.86L45.00 6.86Q45.00 5.89 45.79 5.33L45.79 5.33L45.79 5.33Q46.58 4.76 47.92 4.76L47.92 4.76L47.92 4.76Q48.76 4.76 49.38 5.03L49.38 5.03L49.38 5.03Q49.99 5.31 50.31 5.76L50.31 5.76L50.31 5.76Q50.62 6.22 50.62 6.78L50.62 6.78L50.61 7.04L49.41 7.04L49.41 6.92L49.41 6.92Q49.41 6.43 49.02 6.10L49.02 6.10L49.02 6.10Q48.64 5.78 47.78 5.78L47.78 5.78L47.78 5.78Q46.94 5.78 46.61 6.08L46.61 6.08L46.61 6.08Q46.27 6.38 46.27 6.78L46.27 6.78L46.27 6.78Q46.27 7.10 46.51 7.31L46.51 7.31L46.51 7.31Q46.75 7.52 47.10 7.64L47.10 7.64L47.10 7.64Q47.45 7.77 48.08 7.92L48.08 7.92L48.08 7.92Q48.94 8.15 49.49 8.37L49.49 8.37L49.49 8.37Q50.04 8.58 50.42 9.02L50.42 9.02L50.42 9.02Q50.81 9.46 50.81 10.19L50.81 10.19L50.81 10.19Q50.81 11.33 49.99 11.89L49.99 11.89L49.99 11.89Q49.17 12.46 47.81 12.46L47.81 12.46Z"></path></g><!----><!----></svg>